# Blender v2.79 (sub 0) OBJ File: 'cactus.blend'
# www.blender.org
mtllib cactus.mtl
o Cylinder
v 0.000000 -0.186992 -1.194024
v -0.000000 -0.075028 -0.719474
v 1.034056 -0.186992 -0.597012
v 0.623083 -0.075028 -0.359737
v 1.034055 -0.186992 0.597012
v 0.623083 -0.075028 0.359737
v -0.000000 -0.186992 1.194024
v -0.000000 -0.075028 0.719474
v -1.034056 -0.186992 0.597012
v -0.623083 -0.075028 0.359737
v -1.034056 -0.186992 -0.597012
v -0.623083 -0.075028 -0.359737
v 0.486201 0.468245 -0.280708
v -0.000000 0.468245 -0.561416
v 0.486201 0.468245 0.280708
v -0.000000 0.468245 0.561416
v -0.486201 0.468245 0.280708
v -0.486201 0.468245 -0.280708
v 0.196346 1.465499 -0.883134
v -0.141365 1.465499 -0.564748
v 0.576617 1.465499 -0.436863
v 0.380272 1.465499 0.115597
v -0.196346 1.465499 0.221787
v -0.335176 1.465499 -0.111909
v -0.052692 1.974935 -0.497068
v -0.297645 2.359945 -0.332656
v 0.273794 1.974935 -0.369415
v 0.301188 2.359945 0.031972
v -0.006409 2.359945 0.200117
v -0.305825 2.359945 0.017804
v -0.052692 3.652364 -0.363997
v -0.326486 3.652364 -0.145079
v 0.273794 3.652364 -0.236344
v 0.326486 3.652364 0.110228
v 0.052692 3.652364 0.329146
v -0.273794 3.652364 0.201493
v -0.037113 3.796945 -0.261526
v -0.229953 3.796945 -0.107335
v 0.192841 3.796945 -0.171616
v 0.229953 3.796945 0.072484
v 0.037113 3.796945 0.226675
v -0.192841 3.796945 0.136765
v 0.602833 1.952290 -0.902506
v 0.486031 2.082036 -1.003739
v 0.509820 2.317464 -0.750081
v 0.409538 2.354577 -0.779038
v 1.177101 2.920818 -0.982078
v 1.040168 2.933656 -1.083311
v 1.038699 3.087759 -0.829652
v 0.848403 3.040586 -0.915315
v 1.085468 3.096318 -0.942601
v 1.004286 3.102340 -0.988633
v 1.079336 3.022251 -1.063726
v 1.168095 3.049558 -1.014536
v 0.000000 3.796945 -0.017426
v 0.303964 2.367870 -0.287788
v 0.004728 2.354781 -0.471124
vt 0.331337 0.050867
vt 0.338832 0.000095
vt 0.368690 0.053229
vt 0.317983 0.030793
vt 0.277489 0.000095
vt 0.294328 0.033383
vt 0.247067 0.053341
vt 0.284420 0.055702
vt 0.276924 0.106474
vt 0.028936 0.000095
vt 0.009517 0.140200
vt 0.000095 0.001393
vt 0.297773 0.075776
vt 0.338268 0.106474
vt 0.321428 0.073186
vt 0.054665 0.139270
vt 0.040942 0.396064
vt 0.032093 0.139378
vt 0.086484 0.001382
vt 0.057685 0.000095
vt 0.143180 0.001342
vt 0.111734 0.136894
vt 0.114982 0.000095
vt 0.171105 0.003779
vt 0.133904 0.138083
vt 0.089782 0.136483
vt 0.086673 0.000095
vt 0.079094 0.397242
vt 0.057448 0.626607
vt 0.055517 0.396194
vt 0.102336 0.383853
vt 0.156292 0.139447
vt 0.146871 0.384428
vt 0.021113 0.396132
vt 0.077161 0.140124
vt 0.124777 0.383824
vt 0.120458 0.644145
vt 0.089262 0.961719
vt 0.108029 0.641677
vt 0.246877 0.000095
vt 0.238909 0.128588
vt 0.223258 0.000475
vt 0.043294 0.626323
vt 0.128119 0.531740
vt 0.164877 0.385498
vt 0.145873 0.532710
vt 0.029261 0.626029
vt 0.102262 0.961172
vt 0.111228 0.991590
vt 0.104169 0.990786
vt 0.147416 0.643977
vt 0.134425 0.641586
vt 0.027079 0.954835
vt 0.068680 0.955984
vt 0.054249 0.954165
vt 0.040351 0.953863
vt 0.106820 0.999905
vt 0.095792 0.995333
vt 0.043526 0.984045
vt 0.129835 0.964515
vt 0.115869 0.961993
vt 0.035113 0.989066
vt 0.050811 0.984570
vt 0.190605 0.209309
vt 0.171295 0.374758
vt 0.176434 0.139145
vt 0.213092 0.133176
vt 0.223034 0.221750
vt 0.199699 0.112306
vt 0.196885 0.199910
vt 0.171295 0.000095
vt 0.222844 0.414200
vt 0.231782 0.404279
vt 0.229187 0.416453
vt 0.246877 0.162193
vt 0.234632 0.372434
vt 0.191810 0.413669
vt 0.185852 0.401551
vt 0.185214 0.411237
vt 0.236974 0.399359
vt 0.184528 0.414656
vt 0.173095 0.401704
vt 0.058049 0.990140
vt 0.046638 0.993299
vt 0.118039 0.997307
vt 0.071519 0.626850
vt 0.212903 0.115307
vt 0.241335 0.375974
vn 0.0000 0.8150 -0.5795
vn 0.1989 0.9733 -0.1148
vn 0.0000 0.9733 -0.2296
vn 0.5018 0.8150 -0.2897
vn 0.1989 0.9733 0.1148
vn 0.5018 0.8150 0.2897
vn 0.0000 0.9733 0.2296
vn 0.0000 0.8150 0.5795
vn -0.1989 0.9733 0.1148
vn -0.5018 0.8150 -0.2897
vn -0.0521 0.0232 -0.9984
vn -0.5018 0.8150 0.2897
vn -0.1989 0.9733 -0.1148
vn -0.8364 0.2473 0.4892
vn -0.9942 0.1069 -0.0134
vn -0.8656 0.1874 -0.4643
vn 0.8295 0.2007 0.5212
vn 0.8869 0.0362 -0.4604
vn 0.0006 0.2652 0.9642
vn 0.7004 0.2314 0.6752
vn -0.0138 0.0065 0.9999
vn -0.4791 0.1944 0.8559
vn -0.0877 -0.1872 -0.9784
vn -0.7649 0.0609 -0.6412
vn 0.9953 0.0505 -0.0828
vn 0.8812 0.0311 -0.4717
vn 0.8907 0.2588 0.3736
vn 0.8751 0.0136 0.4836
vn 0.9003 -0.3070 -0.3085
vn -0.8913 0.0057 0.4533
vn 0.8888 0.4520 0.0753
vn -0.3949 0.3153 -0.8629
vn -0.8358 0.0518 -0.5465
vn 0.7466 0.3014 -0.5930
vn -0.0842 0.8285 -0.5536
vn 0.4374 0.8285 -0.3497
vn 0.0648 0.0981 -0.9930
vn -0.8931 0.3055 -0.3302
vn 0.1513 0.2311 0.9611
vn -0.7458 0.2578 0.6142
vn 0.0000 1.0000 0.0000
vn 0.5215 0.8285 0.2039
vn -0.4374 0.8285 0.3497
vn -0.1328 0.3216 -0.9375
vn -0.5215 0.8285 -0.2039
vn 0.0842 0.8285 0.5536
vn -0.6943 0.7091 0.1231
vn 0.0333 0.0052 -0.9994
vn -0.2005 -0.0037 -0.9797
vn 0.3109 0.1658 0.9359
vn 0.2404 0.5856 0.7741
vn 0.7983 0.4917 -0.3477
vn 0.3915 0.9201 -0.0066
vn 0.9565 -0.2915 -0.0083
vn -0.7390 0.6719 -0.0484
vn -0.2214 0.8511 -0.4760
vn 0.1209 0.3828 -0.9159
usemtl Material.001
s 1
f 2/1/1 3/2/2 1/3/3
f 4/4/4 5/5/5 3/2/2
f 6/6/6 7/7/7 5/5/5
f 8/8/8 9/9/9 7/7/7
f 12/10/10 14/11/11 2/12/1
f 10/13/12 11/14/13 9/9/9
f 12/15/10 1/3/3 11/14/13
f 17/16/14 24/17/15 18/18/16
f 8/19/8 17/16/14 10/20/12
f 4/21/4 15/22/17 6/23/6
f 10/20/12 18/18/16 12/10/10
f 2/24/1 13/25/18 4/21/4
f 6/23/6 16/26/19 8/27/8
f 22/28/20 29/29/21 23/30/22
f 15/22/17 22/31/20 16/26/19
f 14/32/11 19/33/23 13/25/18
f 18/18/16 20/34/24 14/11/11
f 16/35/19 23/30/22 17/16/14
f 13/25/18 21/36/25 15/22/17
f 56/37/26 34/38/27 28/39/28
f 19/40/23 43/41/29 21/42/25
f 23/30/22 30/43/30 24/17/15
f 22/31/20 27/44/31 28/39/28
f 20/45/24 25/46/32 19/33/23
f 24/17/15 26/47/33 20/34/24
f 33/48/34 37/49/35 39/50/36
f 25/46/32 26/51/33 57/52/37
f 30/43/30 32/53/38 26/47/33
f 29/29/21 34/54/27 35/55/39
f 27/44/31 57/52/37 56/37/26
f 29/29/21 36/56/40 30/43/30
f 39/50/36 55/57/41 40/58/42
f 35/55/39 42/59/43 36/56/40
f 33/48/34 40/58/42 34/38/27
f 32/60/38 37/49/35 31/61/44
f 36/56/40 38/62/45 32/53/38
f 34/54/27 41/63/46 35/55/39
f 46/64/47 48/65/48 44/66/49
f 27/67/31 43/41/29 45/68/50
f 25/69/32 45/70/50 46/64/47
f 25/69/32 44/66/49 19/71/23
f 49/72/51 54/73/52 51/74/53
f 44/75/49 47/76/54 43/41/29
f 45/68/50 47/76/54 49/72/51
f 46/64/47 49/77/51 50/78/55
f 49/77/51 52/79/56 50/78/55
f 25/46/32 20/45/24 26/51/33
f 56/37/26 31/61/44 33/48/34
f 56/37/26 28/39/28 27/44/31
f 53/80/57 51/74/53 54/73/52
f 52/79/56 51/81/53 53/82/57
f 50/78/55 53/82/57 48/65/48
f 41/63/46 40/83/42 55/84/41
f 41/63/46 55/84/41 42/59/43
f 42/59/43 55/84/41 38/62/45
f 38/85/45 55/57/41 37/49/35
f 37/49/35 55/57/41 39/50/36
f 47/76/54 53/80/57 54/73/52
f 31/61/44 26/51/33 32/60/38
f 2/1/1 4/4/4 3/2/2
f 4/4/4 6/6/6 5/5/5
f 6/6/6 8/8/8 7/7/7
f 8/8/8 10/13/12 9/9/9
f 12/10/10 18/18/16 14/11/11
f 10/13/12 12/15/10 11/14/13
f 12/15/10 2/1/1 1/3/3
f 17/16/14 23/30/22 24/17/15
f 8/19/8 16/35/19 17/16/14
f 4/21/4 13/25/18 15/22/17
f 10/20/12 17/16/14 18/18/16
f 2/24/1 14/32/11 13/25/18
f 6/23/6 15/22/17 16/26/19
f 22/28/20 28/86/28 29/29/21
f 15/22/17 21/36/25 22/31/20
f 14/32/11 20/45/24 19/33/23
f 18/18/16 24/17/15 20/34/24
f 16/35/19 22/28/20 23/30/22
f 13/25/18 19/33/23 21/36/25
f 56/37/26 33/48/34 34/38/27
f 19/40/23 44/75/49 43/41/29
f 23/30/22 29/29/21 30/43/30
f 22/31/20 21/36/25 27/44/31
f 24/17/15 30/43/30 26/47/33
f 33/48/34 31/61/44 37/49/35
f 30/43/30 36/56/40 32/53/38
f 29/29/21 28/86/28 34/54/27
f 27/44/31 25/46/32 57/52/37
f 29/29/21 35/55/39 36/56/40
f 35/55/39 41/63/46 42/59/43
f 33/48/34 39/50/36 40/58/42
f 32/60/38 38/85/45 37/49/35
f 36/56/40 42/59/43 38/62/45
f 34/54/27 40/83/42 41/63/46
f 46/64/47 50/78/55 48/65/48
f 27/67/31 21/42/25 43/41/29
f 25/69/32 27/87/31 45/70/50
f 25/69/32 46/64/47 44/66/49
f 49/72/51 47/76/54 54/73/52
f 44/75/49 48/88/48 47/76/54
f 45/68/50 43/41/29 47/76/54
f 46/64/47 45/70/50 49/77/51
f 49/77/51 51/81/53 52/79/56
f 56/37/26 57/52/37 31/61/44
f 50/78/55 52/79/56 53/82/57
f 47/76/54 48/88/48 53/80/57
f 31/61/44 57/52/37 26/51/33
