# Blender v2.79 (sub 0) OBJ File: 'tree.blend'
# www.blender.org
mtllib tree.mtl
o Cylinder_Cylinder.002
v -0.000000 -0.382794 -0.640022
v -0.000000 1.510685 -0.640022
v 0.411398 -0.382794 -0.490285
v 0.411398 1.510685 -0.490285
v 0.630299 -0.382794 -0.111139
v 0.630299 1.510685 -0.111139
v 0.554275 -0.382794 0.320011
v 0.554275 1.510685 0.320011
v 0.218900 -0.382794 0.601424
v 0.218900 1.510685 0.601424
v -0.218901 -0.382794 0.601424
v -0.218901 1.510685 0.601424
v -0.554275 -0.382794 0.320011
v -0.554275 1.510685 0.320011
v -0.630299 -0.382794 -0.111139
v -0.630299 1.510685 -0.111139
v -0.411398 -0.382794 -0.490285
v -0.411398 1.510685 -0.490285
v 2.226014 1.784143 -2.652860
v 0.000000 1.784143 -3.463063
v 3.410451 1.784143 -0.601354
v 2.999101 1.784143 1.731532
v 1.184437 1.784143 3.254215
v -1.184438 1.784143 3.254214
v -2.999100 1.784143 1.731531
v -3.410451 1.784143 -0.601355
v -2.226014 1.784143 -2.652860
v 0.587916 3.163267 -0.700651
v -0.000000 3.163267 -0.914635
v 0.900740 3.163267 -0.158825
v 0.792097 3.163267 0.457318
v 0.312823 3.163267 0.859476
v -0.312824 3.163267 0.859476
v -0.792097 3.163267 0.457317
v -0.900740 3.163267 -0.158825
v -0.587916 3.163267 -0.700651
v 1.611958 3.454105 -1.921056
v 0.000000 3.454105 -2.507761
v 2.469662 3.454105 -0.435468
v 2.171784 3.454105 1.253881
v 0.857704 3.454105 2.356524
v -0.857705 3.454105 2.356524
v -2.171785 3.454105 1.253880
v -2.469662 3.454105 -0.435468
v -1.611958 3.454105 -1.921056
v 0.403209 4.771695 -0.480526
v -0.000000 4.771695 -0.627282
v 0.617752 4.771695 -0.108926
v 0.543242 4.771695 0.313641
v 0.214543 4.771695 0.589453
v -0.214543 4.771695 0.589453
v -0.543242 4.771695 0.313641
v -0.617752 4.771695 -0.108926
v -0.403209 4.771695 -0.480526
v 0.910988 4.982592 -1.085673
v 0.000000 4.982592 -1.417246
v 1.395714 4.982592 -0.246102
v 1.227371 4.982592 0.708623
v 0.484726 4.982592 1.331775
v -0.484727 4.982592 1.331775
v -1.227371 4.982592 0.708623
v -1.395714 4.982592 -0.246102
v -0.910988 4.982592 -1.085673
v -0.000000 6.437229 0.000000
vt 0.649262 0.995356
vt 0.608916 0.877392
vt 0.649262 0.877392
vt 0.608916 0.995356
vt 0.568570 0.877392
vt 0.568570 0.995356
vt 0.528224 0.877392
vt 0.528224 0.995356
vt 0.487878 0.877392
vt 0.487878 0.995356
vt 0.447532 0.877392
vt 0.447532 0.995356
vt 0.407186 0.877392
vt 0.407186 0.995356
vt 0.366840 0.877392
vt 0.808757 0.707725
vt 0.912773 0.573897
vt 0.833050 0.712025
vt 0.366840 0.995356
vt 0.326493 0.877392
vt 0.326493 0.995356
vt 0.286147 0.877392
vt 0.459400 0.370409
vt 0.685348 0.335009
vt 0.581707 0.516479
vt 0.848897 0.730935
vt 0.998754 0.810127
vt 0.848881 0.755606
vt 0.998754 0.676365
vt 0.665199 0.617555
vt 0.781040 0.550670
vt 0.778933 0.743221
vt 0.787385 0.720045
vt 0.787359 0.766408
vt 0.619454 0.743252
vt 0.808715 0.778760
vt 0.665201 0.868938
vt 0.833012 0.774494
vt 0.781041 0.935822
vt 0.912774 0.912594
vt 0.403177 0.589052
vt 0.274145 0.630702
vt 0.315933 0.515952
vt 0.769287 0.001046
vt 0.687200 0.214581
vt 0.581634 0.034303
vt 0.934390 0.454510
vt 0.790379 0.276547
vt 0.999603 0.275432
vt 0.656155 0.250464
vt 0.459400 0.180318
vt 0.774836 0.231592
vt 0.934408 0.096307
vt 0.731926 0.344072
vt 0.769330 0.549719
vt 0.655597 0.297999
vt 0.734083 0.207128
vt 0.773430 0.320973
vt 0.055067 0.087855
vt 0.182688 0.238400
vt -0.000253 0.239939
vt 0.441323 0.694423
vt 0.541929 0.785318
vt 0.421661 0.806525
vt 0.485118 0.574698
vt 0.620431 0.569636
vt 0.513516 0.608653
vt 0.441540 0.566952
vt 0.421661 0.454903
vt 0.315902 0.745463
vt 0.403020 0.672235
vt 0.620431 0.691764
vt 0.513444 0.652924
vt 0.387950 0.630618
vt 0.484934 0.686797
vt 0.541924 0.476088
vt 0.128118 0.922674
vt 0.190348 0.989487
vt 0.103935 0.989487
vt 0.459002 0.159109
vt 0.264459 0.194121
vt 0.354894 0.035064
vt 0.354840 0.445145
vt 0.225719 0.292905
vt 0.262112 0.287570
vt 0.194494 0.273424
vt 0.055020 0.391941
vt 0.228467 0.186559
vt 0.195301 0.006883
vt 0.286521 0.259959
vt 0.459002 0.321088
vt 0.195264 0.473135
vt 0.196131 0.204069
vt 0.287450 0.223044
vt 0.017771 0.532101
vt 0.089930 0.471552
vt 0.137028 0.600954
vt 0.182701 0.828552
vt 0.271484 0.848859
vt 0.201534 0.861350
vt 0.099221 0.898285
vt 0.037745 0.933935
vt 0.256518 0.933928
vt 0.194916 0.898565
vt 0.111681 0.828337
vt 0.147089 0.744469
vt 0.147220 0.815511
vt 0.022730 0.848856
vt 0.092727 0.861031
vt 0.165913 0.922783
vt 0.228285 0.774037
vt 0.065898 0.774030
vt 0.256285 0.532101
vt 0.272642 0.624866
vt 0.225544 0.706443
vt 0.137028 0.738660
vt 0.001414 0.624866
vt 0.184126 0.471552
vt 0.048512 0.706442
vt 0.286147 0.995356
vn 0.3420 0.0000 -0.9397
vn 0.8660 0.0000 -0.5000
vn 0.9848 0.0000 0.1736
vn 0.6428 0.0000 0.7660
vn -0.0000 0.0000 1.0000
vn -0.6428 0.0000 0.7660
vn -0.9848 0.0000 0.1736
vn 0.0351 -0.9947 -0.0964
vn -0.8660 0.0000 -0.5000
vn -0.3420 0.0000 -0.9397
vn -0.1707 0.8666 -0.4690
vn 0.1010 -0.9947 0.0178
vn 0.0888 -0.9947 -0.0513
vn -0.0351 -0.9947 -0.0964
vn -0.0888 -0.9947 -0.0513
vn -0.1010 -0.9947 0.0178
vn -0.0659 -0.9947 0.0785
vn -0.0000 -0.9947 0.1025
vn 0.0659 -0.9947 0.0786
vn -0.1652 -0.9816 -0.0954
vn -0.3208 0.8666 0.3823
vn 0.4915 0.8666 0.0867
vn -0.4915 0.8666 0.0867
vn 0.3208 0.8666 0.3823
vn 0.1707 0.8666 -0.4690
vn -0.4322 0.8666 -0.2495
vn 0.0000 0.8666 0.4991
vn 0.4322 0.8666 -0.2495
vn -0.5887 0.8017 0.1038
vn 0.0000 -0.9816 0.1907
vn 0.1652 -0.9816 -0.0954
vn -0.0652 -0.9816 -0.1792
vn -0.1226 -0.9816 0.1461
vn 0.1878 -0.9816 0.0331
vn -0.1878 -0.9816 0.0331
vn 0.1226 -0.9816 0.1461
vn 0.0652 -0.9816 -0.1792
vn -0.1757 -0.9619 0.2094
vn 0.3842 0.8017 0.4579
vn 0.2044 0.8017 -0.5617
vn -0.5177 0.8017 -0.2989
vn 0.0000 0.8017 0.5978
vn 0.5177 0.8017 -0.2989
vn -0.2044 0.8017 -0.5617
vn -0.3842 0.8017 0.4579
vn 0.5887 0.8017 0.1038
vn 0.0000 0.6753 0.7376
vn 0.2691 -0.9619 0.0475
vn -0.2691 -0.9619 0.0475
vn 0.1757 -0.9619 0.2094
vn 0.0935 -0.9619 -0.2568
vn -0.2367 -0.9619 -0.1366
vn 0.0000 -0.9619 0.2733
vn 0.2367 -0.9619 -0.1366
vn -0.0935 -0.9619 -0.2568
vn 0.6388 0.6753 -0.3688
vn -0.2523 0.6753 -0.6931
vn -0.4741 0.6753 0.5650
vn 0.7264 0.6753 0.1281
vn -0.7264 0.6753 0.1281
vn 0.4741 0.6753 0.5650
vn 0.2523 0.6753 -0.6931
vn -0.6388 0.6753 -0.3688
vn -0.0659 -0.9947 0.0786
usemtl None
s off
f 2/1/1 3/2/1 1/3/1
f 4/4/2 5/5/2 3/2/2
f 6/6/3 7/7/3 5/5/3
f 8/8/4 9/9/4 7/7/4
f 10/10/5 11/11/5 9/9/5
f 12/12/6 13/13/6 11/11/6
f 14/14/7 15/15/7 13/13/7
f 2/16/8 19/17/8 4/18/8
f 16/19/9 17/20/9 15/15/9
f 18/21/10 1/22/10 17/20/10
f 27/23/11 29/24/11 20/25/11
f 6/26/12 22/27/12 8/28/12
f 4/18/13 21/29/13 6/26/13
f 2/16/14 27/30/14 20/31/14
f 16/32/15 27/30/15 18/33/15
f 14/34/16 26/35/16 16/32/16
f 12/36/17 25/37/17 14/34/17
f 10/38/18 24/39/18 12/36/18
f 8/28/19 23/40/19 10/38/19
f 36/41/20 44/42/20 45/43/20
f 24/44/21 34/45/21 25/46/21
f 21/47/22 31/48/22 22/49/22
f 25/46/23 35/50/23 26/51/23
f 22/49/24 32/52/24 23/53/24
f 20/25/25 28/54/25 19/55/25
f 26/51/26 36/56/26 27/23/26
f 23/53/27 33/57/27 24/44/27
f 19/55/28 30/58/28 21/47/28
f 43/59/29 53/60/29 44/61/29
f 33/62/30 41/63/30 42/64/30
f 28/65/31 39/66/31 30/67/31
f 29/68/32 45/43/32 38/69/32
f 33/62/33 43/70/33 34/71/33
f 30/67/34 40/72/34 31/73/34
f 34/71/35 44/42/35 35/74/35
f 31/73/36 41/63/36 32/75/36
f 29/68/37 37/76/37 28/65/37
f 52/77/38 60/78/38 61/79/38
f 40/80/39 50/81/39 41/82/39
f 37/83/40 47/84/40 46/85/40
f 44/61/41 54/86/41 45/87/41
f 41/82/42 51/88/42 42/89/42
f 37/83/43 48/90/43 39/91/43
f 45/87/44 47/84/44 38/92/44
f 42/89/45 52/93/45 43/59/45
f 39/91/46 49/94/46 40/80/46
f 60/95/47 59/96/47 64/97/47
f 48/98/48 58/99/48 49/100/48
f 53/101/49 61/79/49 62/102/49
f 49/100/50 59/103/50 50/104/50
f 47/105/51 55/106/51 46/107/51
f 53/101/52 63/108/52 54/109/52
f 50/104/53 60/78/53 51/110/53
f 46/107/54 57/111/54 48/98/54
f 47/105/55 63/108/55 56/112/55
f 57/113/56 55/114/56 64/97/56
f 56/115/57 63/116/57 64/97/57
f 61/117/58 60/95/58 64/97/58
f 58/118/59 57/113/59 64/97/59
f 62/119/60 61/117/60 64/97/60
f 59/96/61 58/118/61 64/97/61
f 55/114/62 56/115/62 64/97/62
f 63/116/63 62/119/63 64/97/63
f 2/1/1 4/4/1 3/2/1
f 4/4/2 6/6/2 5/5/2
f 6/6/3 8/8/3 7/7/3
f 8/8/4 10/10/4 9/9/4
f 10/10/5 12/12/5 11/11/5
f 12/12/6 14/14/6 13/13/6
f 14/14/7 16/19/7 15/15/7
f 2/16/8 20/31/8 19/17/8
f 16/19/9 18/21/9 17/20/9
f 18/21/10 2/120/10 1/22/10
f 27/23/11 36/56/11 29/24/11
f 6/26/12 21/29/12 22/27/12
f 4/18/13 19/17/13 21/29/13
f 2/16/14 18/33/14 27/30/14
f 16/32/15 26/35/15 27/30/15
f 14/34/16 25/37/16 26/35/16
f 12/36/64 24/39/64 25/37/64
f 10/38/18 23/40/18 24/39/18
f 8/28/19 22/27/19 23/40/19
f 36/41/20 35/74/20 44/42/20
f 24/44/21 33/57/21 34/45/21
f 21/47/22 30/58/22 31/48/22
f 25/46/23 34/45/23 35/50/23
f 22/49/24 31/48/24 32/52/24
f 20/25/25 29/24/25 28/54/25
f 26/51/26 35/50/26 36/56/26
f 23/53/27 32/52/27 33/57/27
f 19/55/28 28/54/28 30/58/28
f 43/59/29 52/93/29 53/60/29
f 33/62/30 32/75/30 41/63/30
f 28/65/31 37/76/31 39/66/31
f 29/68/32 36/41/32 45/43/32
f 33/62/33 42/64/33 43/70/33
f 30/67/34 39/66/34 40/72/34
f 34/71/35 43/70/35 44/42/35
f 31/73/36 40/72/36 41/63/36
f 29/68/37 38/69/37 37/76/37
f 52/77/38 51/110/38 60/78/38
f 40/80/39 49/94/39 50/81/39
f 37/83/40 38/92/40 47/84/40
f 44/61/41 53/60/41 54/86/41
f 41/82/42 50/81/42 51/88/42
f 37/83/43 46/85/43 48/90/43
f 45/87/44 54/86/44 47/84/44
f 42/89/45 51/88/45 52/93/45
f 39/91/46 48/90/46 49/94/46
f 48/98/48 57/111/48 58/99/48
f 53/101/49 52/77/49 61/79/49
f 49/100/50 58/99/50 59/103/50
f 47/105/51 56/112/51 55/106/51
f 53/101/52 62/102/52 63/108/52
f 50/104/53 59/103/53 60/78/53
f 46/107/54 55/106/54 57/111/54
f 47/105/55 54/109/55 63/108/55
